<svg id="bg-hero" xmlns="http://www.w3.org/2000/svg" xmlns:xlink="http://www.w3.org/1999/xlink" viewBox="0 0 1440 865" shape-rendering="geometricPrecision" text-rendering="geometricPrecision" width="1440" height="865"><style><![CDATA[#bg-hero-el_5xqlkqpzhk_to {animation: bg-hero-el_5xqlkqpzhk_to__to 10000ms linear infinite normal forwards}@keyframes bg-hero-el_5xqlkqpzhk_to__to { 0% {transform: translate(419.400009px,406.699997px)} 30% {transform: translate(683.192003px,360.917212px)} 60% {transform: translate(984.593868px,311.302420px)} 89% {transform: translate(1177.608015px,194.029417px)} 100% {transform: translate(1338.772515px,-50.629945px)} }#bg-hero-el_iktpmmpkwf_to {animation: bg-hero-el_iktpmmpkwf_to__to 10000ms linear infinite normal forwards}@keyframes bg-hero-el_iktpmmpkwf_to__to { 0% {transform: translate(409.099991px,398.850006px)} 30% {transform: translate(672.891985px,353.067222px)} 60% {transform: translate(974.293849px,303.452429px)} 89% {transform: translate(1167.307997px,186.179426px)} 100% {transform: translate(1328.472497px,-58.479936px)} }#bg-hero-el_fvgpyqxwua_to {animation: bg-hero-el_fvgpyqxwua_to__to 10000ms linear infinite normal forwards}@keyframes bg-hero-el_fvgpyqxwua_to__to { 0% {transform: translate(415.949997px,399.599991px)} 30% {transform: translate(679.741991px,353.817206px)} 60% {transform: translate(981.143856px,304.202414px)} 89% {transform: translate(1174.158003px,186.929411px)} 100% {transform: translate(1335.322503px,-57.729951px)} }#bg-hero-el_gmlgyp_ie7_to {animation: bg-hero-el_gmlgyp_ie7_to__to 10000ms linear infinite normal forwards}@keyframes bg-hero-el_gmlgyp_ie7_to__to { 0% {transform: translate(422.979294px,403px)} 30% {transform: translate(686.771288px,357.217216px)} 60% {transform: translate(988.173152px,307.602423px)} 89% {transform: translate(1181.187300px,190.329420px)} 100% {transform: translate(1342.351800px,-54.329942px)} }#bg-hero-el_ebwoel5kur_to {animation: bg-hero-el_ebwoel5kur_to__to 10000ms linear infinite normal forwards}@keyframes bg-hero-el_ebwoel5kur_to__to { 0% {transform: translate(429.550003px,399.599991px)} 30% {transform: translate(693.341997px,353.817206px)} 60% {transform: translate(994.743862px,304.202414px)} 89% {transform: translate(1187.758009px,186.929411px)} 100% {transform: translate(1348.922509px,-57.729951px)} }#bg-hero-el_scb7h5geyi_to {animation: bg-hero-el_scb7h5geyi_to__to 10000ms linear infinite normal forwards}@keyframes bg-hero-el_scb7h5geyi_to__to { 0% {transform: translate(436.350006px,398.850006px)} 30% {transform: translate(700.142000px,353.067222px)} 60% {transform: translate(1001.543865px,303.452429px)} 89% {transform: translate(1194.558012px,186.179426px)} 100% {transform: translate(1355.722512px,-58.479936px)} }#bg-hero-el_i5mqhb_p_r_to {animation: bg-hero-el_i5mqhb_p_r_to__to 10000ms linear infinite normal forwards}@keyframes bg-hero-el_i5mqhb_p_r_to__to { 0% {transform: translate(422.799988px,364.450012px)} 30% {transform: translate(686.591982px,318.667228px)} 60% {transform: translate(987.993846px,269.052435px)} 89% {transform: translate(1181.007994px,151.779432px)} 100% {transform: translate(1342.172494px,-92.879930px)} }#bg-hero-el_kcwzs92nnp_to {animation: bg-hero-el_kcwzs92nnp_to__to 10000ms linear infinite normal forwards}@keyframes bg-hero-el_kcwzs92nnp_to__to { 0% {transform: translate(422.736328px,364.450012px)} 30% {transform: translate(686.528322px,318.667228px)} 60% {transform: translate(987.930187px,269.052435px)} 89% {transform: translate(1180.944334px,151.779432px)} 100% {transform: translate(1342.108834px,-92.879930px)} }#bg-hero-el__0rwquztv1_to {animation: bg-hero-el__0rwquztv1_to__to 10000ms linear infinite normal forwards}@keyframes bg-hero-el__0rwquztv1_to__to { 0% {transform: translate(422.657913px,364.450012px)} 30% {transform: translate(686.449907px,318.667228px)} 60% {transform: translate(987.851772px,269.052435px)} 89% {transform: translate(1180.865919px,151.779432px)} 100% {transform: translate(1342.030419px,-92.879930px)} }#bg-hero-el_d2gcowg4-u_to {animation: bg-hero-el_d2gcowg4-u_to__to 10000ms linear infinite normal forwards}@keyframes bg-hero-el_d2gcowg4-u_to__to { 0% {transform: translate(433.104080px,364.448792px)} 30% {transform: translate(696.896074px,318.666007px)} 60% {transform: translate(998.297939px,269.051215px)} 89% {transform: translate(1191.312086px,151.778212px)} 100% {transform: translate(1352.476586px,-92.881150px)} }#bg-hero-el_h-xzqebger_to {animation: bg-hero-el_h-xzqebger_to__to 10000ms linear infinite normal forwards}@keyframes bg-hero-el_h-xzqebger_to__to { 0% {transform: translate(427px,364.550018px)} 30% {transform: translate(690.791994px,318.767234px)} 60% {transform: translate(992.193859px,269.152441px)} 89% {transform: translate(1185.208006px,151.879439px)} 100% {transform: translate(1346.372506px,-92.779923px)} }#bg-hero-el_gedrhqflzss_to {animation: bg-hero-el_gedrhqflzss_to__to 10000ms linear infinite normal forwards}@keyframes bg-hero-el_gedrhqflzss_to__to { 0% {transform: translate(437.974625px,364.448792px)} 30% {transform: translate(701.766619px,318.666007px)} 60% {transform: translate(1003.168483px,269.051215px)} 89% {transform: translate(1196.182630px,151.778212px)} 100% {transform: translate(1357.347130px,-92.881150px)} }#bg-hero-el_uyzemq469f2_to {animation: bg-hero-el_uyzemq469f2_to__to 10000ms linear infinite normal forwards}@keyframes bg-hero-el_uyzemq469f2_to__to { 0% {transform: translate(422.750000px,396.500000px)} 30% {transform: translate(686.541994px,350.717216px)} 60% {transform: translate(987.943859px,301.102423px)} 89% {transform: translate(1180.958006px,183.829420px)} 100% {transform: translate(1342.122506px,-60.829942px)} }#bg-hero-el_il0mmtjzovc_to {animation: bg-hero-el_il0mmtjzovc_to__to 10000ms linear infinite normal forwards}@keyframes bg-hero-el_il0mmtjzovc_to__to { 0% {transform: translate(428.100006px,396.500000px)} 30% {transform: translate(691.892000px,350.717216px)} 60% {transform: translate(993.293865px,301.102423px)} 89% {transform: translate(1186.308012px,183.829420px)} 100% {transform: translate(1347.472512px,-60.829942px)} }#bg-hero-el_gmeo6pvov4n_to {animation: bg-hero-el_gmeo6pvov4n_to__to 10000ms linear infinite normal forwards}@keyframes bg-hero-el_gmeo6pvov4n_to__to { 0% {transform: translate(426px,406.699997px)} 30% {transform: translate(689.791994px,360.917212px)} 60% {transform: translate(991.193859px,311.302420px)} 89% {transform: translate(1184.208006px,194.029417px)} 100% {transform: translate(1345.372506px,-50.629945px)} }#bg-hero-el_ptpeofbeak_to {animation: bg-hero-el_ptpeofbeak_to__to 10000ms linear infinite normal forwards}@keyframes bg-hero-el_ptpeofbeak_to__to { 0% {transform: translate(422.649979px,414.449997px)} 30% {transform: translate(686.441973px,368.667212px)} 60% {transform: translate(987.843837px,319.052420px)} 89% {transform: translate(1180.857984px,201.779417px)} 100% {transform: translate(1342.022484px,-42.879945px)} }#bg-hero-el_zgcadlwzmfm_to {animation: bg-hero-el_zgcadlwzmfm_to__to 10000ms linear infinite normal forwards}@keyframes bg-hero-el_zgcadlwzmfm_to__to { 0% {transform: translate(424px,402.900009px)} 30% {transform: translate(687.791994px,357.117225px)} 60% {transform: translate(989.193859px,307.502432px)} 89% {transform: translate(1182.208006px,190.229429px)} 100% {transform: translate(1343.372506px,-54.429933px)} }#bg-hero-el_pxh5uvnnjyg_to {animation: bg-hero-el_pxh5uvnnjyg_to__to 10000ms linear infinite normal forwards}@keyframes bg-hero-el_pxh5uvnnjyg_to__to { 0% {transform: translate(422.796112px,404.799988px)} 30% {transform: translate(686.588106px,359.017203px)} 60% {transform: translate(987.989971px,309.402411px)} 89% {transform: translate(1181.004118px,192.129408px)} 100% {transform: translate(1342.168618px,-52.529954px)} }#bg-hero-el_cnkgfoaadj5_to {animation: bg-hero-el_cnkgfoaadj5_to__to 10000ms linear infinite normal forwards}@keyframes bg-hero-el_cnkgfoaadj5_to__to { 0% {transform: translate(424.449997px,404.862503px)} 30% {transform: translate(688.241991px,359.079719px)} 60% {transform: translate(989.643856px,309.464926px)} 89% {transform: translate(1182.658003px,192.191923px)} 100% {transform: translate(1343.822503px,-52.467439px)} }#bg-hero-el_lobhxvd3lpb_to {animation: bg-hero-el_lobhxvd3lpb_to__to 10000ms linear infinite normal forwards}@keyframes bg-hero-el_lobhxvd3lpb_to__to { 0% {transform: translate(425.750000px,414px)} 30% {transform: translate(689.541994px,368.217216px)} 60% {transform: translate(990.943859px,318.602423px)} 89% {transform: translate(1183.958006px,201.329420px)} 100% {transform: translate(1345.122506px,-43.329942px)} }#bg-hero-el_x1fl6t8ce1x_to {animation: bg-hero-el_x1fl6t8ce1x_to__to 10000ms linear infinite normal forwards}@keyframes bg-hero-el_x1fl6t8ce1x_to__to { 0% {transform: translate(422.699997px,414px)} 30% {transform: translate(686.491991px,368.217216px)} 60% {transform: translate(987.893856px,318.602423px)} 89% {transform: translate(1180.908003px,201.329420px)} 100% {transform: translate(1342.072503px,-43.329942px)} }#bg-hero-el_jnwxgp3fepm_to {animation: bg-hero-el_jnwxgp3fepm_to__to 10000ms linear infinite normal forwards}@keyframes bg-hero-el_jnwxgp3fepm_to__to { 0% {transform: translate(424.149994px,414px)} 30% {transform: translate(687.941988px,368.217216px)} 60% {transform: translate(989.343853px,318.602423px)} 89% {transform: translate(1182.358000px,201.329420px)} 100% {transform: translate(1343.522500px,-43.329942px)} }#bg-hero-el_yzzdjwsbch_to {animation: bg-hero-el_yzzdjwsbch_to__to 10000ms linear infinite normal forwards}@keyframes bg-hero-el_yzzdjwsbch_to__to { 0% {transform: translate(247.146309px,406.321121px)} 100% {transform: translate(1200px,300px)} }#bg-hero-el_zk_i1rg9bw__to {animation: bg-hero-el_zk_i1rg9bw__to__to 10000ms linear infinite normal forwards}@keyframes bg-hero-el_zk_i1rg9bw__to__to { 0% {transform: translate(88.900002px,383.808548px)} 100% {transform: translate(1540.100002px,200px)} }#bg-hero-el_ietj6mepyss_to {animation: bg-hero-el_ietj6mepyss_to__to 10000ms linear infinite normal forwards}@keyframes bg-hero-el_ietj6mepyss_to__to { 0% {transform: translate(321.800003px,354.935013px)} 100% {transform: translate(1321.800003px,354.935013px)} }#bg-hero-el_yzzdjwsbch_1__to {animation: bg-hero-el_yzzdjwsbch_1__to__to 10000ms linear infinite normal forwards}@keyframes bg-hero-el_yzzdjwsbch_1__to__to { 0% {transform: translate(944.855164px,229.912041px)} 100% {transform: translate(-179.773315px,229.896533px)} }#bg-hero-el_zk_i1rg9bw__1__to {animation: bg-hero-el_zk_i1rg9bw__1__to__to 10000ms linear infinite normal forwards}@keyframes bg-hero-el_zk_i1rg9bw__1__to__to { 0% {transform: translate(1245.700012px,186.889099px)} 100% {transform: translate(-223.799988px,186.889099px)} }#bg-hero-el_ietj6mepyss_1__to {animation: bg-hero-el_ietj6mepyss_1__to__to 10000ms linear infinite normal forwards}@keyframes bg-hero-el_ietj6mepyss_1__to__to { 0% {transform: translate(803.106903px,131.846298px)} 100% {transform: translate(-97.925131px,118.400006px)} }#bg-hero-path1_to {animation: bg-hero-path1_to__to 10000ms linear infinite normal forwards}@keyframes bg-hero-path1_to__to { 0% {transform: translate(4px,55px)} 50% {transform: translate(138.715559px,-64.894774px)} 68% {transform: translate(234.100000px,-153.729750px)} 88% {transform: translate(356.256000px,-296.813737px)} 100% {transform: translate(488px,-396.779942px)} }#bg-hero-path_1__to {animation: bg-hero-path_1__to__to 10000ms linear infinite normal forwards}@keyframes bg-hero-path_1__to__to { 0% {transform: translate(40.500000px,50px)} 50% {transform: translate(175.215559px,-69.894774px)} 68% {transform: translate(270.600000px,-158.729750px)} 88% {transform: translate(392.756000px,-301.813737px)} 100% {transform: translate(524.500000px,-401.779942px)} }#bg-hero-path_2__to {animation: bg-hero-path_2__to__to 10000ms linear infinite normal forwards}@keyframes bg-hero-path_2__to__to { 0% {transform: translate(42.537498px,13.450000px)} 50% {transform: translate(177.253057px,-106.444774px)} 68% {transform: translate(272.637498px,-195.279750px)} 88% {transform: translate(394.793498px,-338.363737px)} 100% {transform: translate(526.537498px,-438.329942px)} }#bg-hero-path_3__to {animation: bg-hero-path_3__to__to 10000ms linear infinite normal forwards}@keyframes bg-hero-path_3__to__to { 0% {transform: translate(37px,6.150000px)} 50% {transform: translate(171.715559px,-113.744774px)} 68% {transform: translate(267.100000px,-202.579750px)} 88% {transform: translate(389.256000px,-345.663737px)} 100% {transform: translate(521px,-445.629942px)} }#bg-hero-path_4__to {animation: bg-hero-path_4__to__to 10000ms linear infinite normal forwards}@keyframes bg-hero-path_4__to__to { 0% {transform: translate(32.200001px,97.699997px)} 50% {transform: translate(166.915560px,-22.194777px)} 68% {transform: translate(262.300001px,-111.029753px)} 88% {transform: translate(384.456001px,-254.113740px)} 100% {transform: translate(516.200001px,-354.079945px)} }#bg-hero-path_5__to {animation: bg-hero-path_5__to__to 10000ms linear infinite normal forwards}@keyframes bg-hero-path_5__to__to { 0% {transform: translate(8.474999px,9.850000px)} 50% {transform: translate(143.190558px,-110.044774px)} 68% {transform: translate(238.574999px,-198.879750px)} 88% {transform: translate(360.730999px,-341.963737px)} 100% {transform: translate(492.474999px,-441.929942px)} }#bg-hero-path_6__to {animation: bg-hero-path_6__to__to 10000ms linear infinite normal forwards}@keyframes bg-hero-path_6__to__to { 0% {transform: translate(74.104237px,12.775054px)} 50% {transform: translate(208.819796px,-107.119720px)} 68% {transform: translate(304.204237px,-195.954696px)} 88% {transform: translate(426.360237px,-339.038682px)} 100% {transform: translate(558.104237px,-439.004887px)} }#bg-hero-path_7__to {animation: bg-hero-path_7__to__to 10000ms linear infinite normal forwards}@keyframes bg-hero-path_7__to__to { 0% {transform: translate(67.996323px,48.546686px)} 50% {transform: translate(202.711882px,-71.348088px)} 68% {transform: translate(298.096323px,-160.183064px)} 88% {transform: translate(420.252323px,-303.267051px)} 100% {transform: translate(551.996323px,-403.233256px)} }#bg-hero-path_8__to {animation: bg-hero-path_8__to__to 10000ms linear infinite normal forwards}@keyframes bg-hero-path_8__to__to { 0% {transform: translate(23.425688px,21.549999px)} 50% {transform: translate(158.141247px,-98.344775px)} 68% {transform: translate(253.525688px,-187.179751px)} 88% {transform: translate(375.681688px,-330.263738px)} 100% {transform: translate(507.425688px,-430.229943px)} }#bg-hero-path_9__to {animation: bg-hero-path_9__to__to 10000ms linear infinite normal forwards}@keyframes bg-hero-path_9__to__to { 0% {transform: translate(9.450001px,43px)} 50% {transform: translate(144.165560px,-76.894774px)} 68% {transform: translate(239.550001px,-165.729750px)} 88% {transform: translate(361.706001px,-308.813737px)} 100% {transform: translate(493.450001px,-408.779942px)} }#bg-hero-path_10__to {animation: bg-hero-path_10__to__to 10000ms linear infinite normal forwards}@keyframes bg-hero-path_10__to__to { 0% {transform: translate(18.500000px,45px)} 50% {transform: translate(153.215559px,-74.894774px)} 68% {transform: translate(248.600000px,-163.729750px)} 88% {transform: translate(370.756000px,-306.813737px)} 100% {transform: translate(502.500000px,-406.779942px)} }#bg-hero-rectangle_to {animation: bg-hero-rectangle_to__to 10000ms linear infinite normal forwards}@keyframes bg-hero-rectangle_to__to { 0% {transform: translate(85.100002px,80.550003px)} 50% {transform: translate(219.815561px,-39.344771px)} 68% {transform: translate(315.200002px,-128.179747px)} 88% {transform: translate(437.356002px,-271.263734px)} 100% {transform: translate(569.100002px,-371.229939px)} }#bg-hero-shape_to {animation: bg-hero-shape_to__to 10000ms linear infinite normal forwards}@keyframes bg-hero-shape_to__to { 0% {transform: translate(18.500000px,14.500000px)} 50% {transform: translate(153.215559px,-105.394774px)} 68% {transform: translate(248.600000px,-194.229750px)} 88% {transform: translate(370.756000px,-337.313736px)} 100% {transform: translate(502.500000px,-437.279941px)} }#bg-hero-path_11__to {animation: bg-hero-path_11__to__to 10000ms linear infinite normal forwards}@keyframes bg-hero-path_11__to__to { 0% {transform: translate(31.993861px,45.300005px)} 50% {transform: translate(166.709420px,-74.594769px)} 68% {transform: translate(262.093861px,-163.429745px)} 88% {transform: translate(384.249861px,-306.513732px)} 100% {transform: translate(515.993861px,-406.479937px)} }]]></style><g id="bg-hero-el_xpxp6mkvcn_xzrztcn7e"><g id="bg-hero-g1"><g id="bg-hero-el_xpxp6mkvcn"><g id="bg-hero-el_5xqlkqpzhk_to" transform="translate(419.400009,406.699997)"><polygon id="bg-hero-el_5xqlkqpzhk" points="420.200000,403.500000 419,410 418.600000,410 419.900000,403.400000" transform="translate(-419.400009,-406.699997)" fill="rgb(0,0,0)" stroke="none" stroke-width="1"/></g><g id="bg-hero-el_iktpmmpkwf_to" transform="translate(409.099991,398.850006)"><polygon id="bg-hero-el_iktpmmpkwf" points="400.900000,378.800000 417.100000,419 417.300000,419 401.100000,378.700000" transform="translate(-409.099991,-398.850006)" fill="rgb(0,0,0)" stroke="none" stroke-width="1"/></g><g id="bg-hero-el_fvgpyqxwua_to" transform="translate(415.949997,399.599991)"><polygon id="bg-hero-el_fvgpyqxwua" points="411.800000,394 419.900000,405.400000 420.100000,405.200000 412,393.800000" transform="translate(-415.949997,-399.599991)" fill="rgb(0,0,0)" stroke="none" stroke-width="1"/></g><g id="bg-hero-el_gmlgyp_ie7_to" transform="translate(422.979294,403)"><path id="bg-hero-el_gmlgyp_ie7" d="M421.100000,402L424.400000,402C424.500000,402.200000,424.600000,402.300000,425,402.400000L425,403.500000C424.600000,403.600000,424.500000,403.700000,424.400000,404L421.100000,404C421,403.700000,420.900000,403.600000,421,403.500000L421,402.400000C420.900000,402.300000,421,402.200000,421.100000,402Z" transform="translate(-422.979294,-403)" fill="rgb(117,70,46)" stroke="none" stroke-width="1"/></g><g id="bg-hero-el_ebwoel5kur_to" transform="translate(429.550003,399.599991)"><polygon id="bg-hero-el_ebwoel5kur" points="433.700000,394 425.600000,405.400000 425.400000,405.200000 433.500000,393.800000" transform="translate(-429.550003,-399.599991)" fill="rgb(0,0,0)" stroke="none" stroke-width="1"/></g><g id="bg-hero-el_scb7h5geyi_to" transform="translate(436.350006,398.850006)"><polygon id="bg-hero-el_scb7h5geyi" points="444.600000,378.800000 428.300000,419 428.100000,419 444.300000,378.700000" transform="translate(-436.350006,-398.850006)" fill="rgb(0,0,0)" stroke="none" stroke-width="1"/></g><g id="bg-hero-el_i5mqhb_p_r_to" transform="translate(422.799988,364.450012)"><path id="bg-hero-el_i5mqhb_p_r" d="M398.800000,338C393.400000,343.500000,391,351.300000,392.400000,358.900000C394.400000,371.500000,408.300000,388.200000,415.700000,399L429.900000,399C437.300000,388.200000,451.200000,371.600000,453.200000,358.900000C454.600000,351.300000,452.200000,343.500000,446.800000,338C435.900000,327.200000,409.600000,327.200000,398.800000,338Z" transform="translate(-422.799988,-364.450012)" fill="rgb(238,148,128)" stroke="none" stroke-width="1"/></g><g id="bg-hero-el_kcwzs92nnp_to" transform="translate(422.736328,364.450012)"><path id="bg-hero-el_kcwzs92nnp" d="M406.700000,338C394.300000,356.400000,409.800000,381.200000,418,399L427.500000,399C435.800000,381,451.100000,356.300000,438.800000,338C431.500000,327.200000,413.900000,327.200000,406.700000,338Z" transform="translate(-422.736328,-364.450012)" fill="rgb(42,183,202)" stroke="none" stroke-width="1"/></g><g id="bg-hero-el__0rwquztv1_to" transform="translate(422.657913,364.450012)"><path id="bg-hero-el__0rwquztv1" d="M416.400000,338C411.600000,356.300000,417.600000,381,420.800000,399L424.500000,399C427.800000,380.900000,433.700000,356.300000,428.900000,338C426.200000,327.200000,419.300000,327.200000,416.400000,338Z" transform="translate(-422.657913,-364.450012)" fill="rgb(238,148,128)" stroke="none" stroke-width="1"/></g><g id="bg-hero-el_d2gcowg4-u_to" transform="translate(433.104080,364.448792)"><path id="bg-hero-el_d2gcowg4-u" d="M424.600000,399L427.500000,399C435.800000,381,451.100000,356.300000,438.800000,338C435.100000,332.800000,429.100000,329.800000,422.800000,329.900000C425.200000,329.900000,427.700000,332.600000,429.100000,338C433.800000,356.300000,427.800000,381,424.600000,399Z" transform="translate(-433.104080,-364.448792)" fill="rgb(238,148,128)" stroke="none" stroke-width="1"/></g><g id="bg-hero-el_h-xzqebger_to" transform="translate(427,364.550018)"><path id="bg-hero-el_h-xzqebger" d="M423,399L423,330.100000C430,330.100000,431,347.800000,431,354.800000C431,369,427.300000,385.100000,424.800000,399L423,399L423,399Z" transform="translate(-427,-364.550018)" fill="rgb(42,183,202)" stroke="none" stroke-width="1"/></g><g id="bg-hero-el_gedrhqflzss_to" transform="translate(437.974625,364.448792)"><path id="bg-hero-el_gedrhqflzss" d="M427.400000,399L429.700000,399C437.100000,388.200000,451,371.600000,453,358.900000C455.500000,343.100000,444.500000,329.900000,422.600000,329.900000C428.900000,329.800000,434.900000,332.800000,438.600000,338C451.100000,356.400000,435.600000,381.200000,427.400000,399Z" transform="translate(-437.974625,-364.448792)" fill="rgb(42,183,202)" stroke="none" stroke-width="1"/></g><g id="bg-hero-el_uyzemq469f2_to" transform="translate(422.750000,396.500000)"><polygon id="bg-hero-el_uyzemq469f2" points="412.600000,394 432.900000,394 429.300000,399 416.100000,399" transform="translate(-422.750000,-396.500000)" fill="rgb(117,70,46)" stroke="none" stroke-width="1"/></g><g id="bg-hero-el_il0mmtjzovc_to" transform="translate(428.100006,396.500000)"><polygon id="bg-hero-el_il0mmtjzovc" points="423,394 433.200000,394 429.600000,399 423,399" transform="translate(-428.100006,-396.500000)" fill="rgb(62,140,199)" stroke="none" stroke-width="1"/></g><g id="bg-hero-el_gmeo6pvov4n_to" transform="translate(426,406.699997)"><polygon id="bg-hero-el_gmeo6pvov4n" points="425.200000,403.500000 426.500000,410 426.800000,410 425.500000,403.400000" transform="translate(-426,-406.699997)" fill="rgb(0,0,0)" stroke="none" stroke-width="1"/></g><g id="bg-hero-el_ptpeofbeak_to" transform="translate(422.649979,414.449997)"><path id="bg-hero-el_ptpeofbeak" d="M418.600000,410.300000C418.700000,410.300000,426.900000,410.300000,426.900000,410.400000L428.300000,418.500000C428.300000,418.500000,428.300000,418.600000,428.200000,418.600000L428.200000,418.600000L428.200000,418.600000C428.100000,418.600000,417,418.600000,417,418.500000L418.600000,410.300000C418.500000,410.400000,418.500000,410.300000,418.600000,410.300000Z" transform="translate(-422.649979,-414.449997)" fill="rgb(222,76,60)" stroke="none" stroke-width="1"/></g><g id="bg-hero-el_zgcadlwzmfm_to" transform="translate(424,402.900009)"><path id="bg-hero-el_zgcadlwzmfm" d="M423,403.700000L423,402L424.300000,402C424.400000,402.200000,424.500000,402.300000,425,402.400000L425,403.600000C424.500000,403.700000,424.400000,403.800000,424.300000,403.800000L423,403.700000Z" transform="translate(-424,-402.900009)" fill="rgb(62,140,199)" stroke="none" stroke-width="1"/></g><g id="bg-hero-el_pxh5uvnnjyg_to" transform="translate(422.796112,404.799988)"><path id="bg-hero-el_pxh5uvnnjyg" d="M420.200000,403.600000C425.400000,403.600000,425.500000,403.400000,425.600000,403.900000L426,405.700000C426,405.900000,425.900000,406,425.700000,406C420.300000,406,419.500000,406.200000,419.600000,405.700000L420,403.900000C419.900000,403.700000,420,403.600000,420.200000,403.600000Z" transform="translate(-422.796112,-404.799988)" fill="rgb(62,140,199)" stroke="none" stroke-width="1"/></g><g id="bg-hero-el_cnkgfoaadj5_to" transform="translate(424.449997,404.862503)"><path id="bg-hero-el_cnkgfoaadj5" d="M423,406L423,404L425.200000,404C425.400000,403.600000,425.500000,403.700000,425.500000,403.900000L425.900000,405.700000C425.900000,405.900000,425.800000,406,425.600000,406L423,406Z" transform="translate(-424.449997,-404.862503)" fill="rgb(117,70,46)" stroke="none" stroke-width="1"/></g><g id="bg-hero-el_lobhxvd3lpb_to" transform="translate(425.750000,414)"><path id="bg-hero-el_lobhxvd3lpb" d="M423,418L423,410L427,410C427.100000,410,428.500000,417.800000,428.500000,417.900000C428.500000,417.900000,428.500000,418,428.400000,418L428.400000,418L423,418Z" transform="translate(-425.750000,-414)" fill="rgb(42,183,202)" stroke="none" stroke-width="1"/></g><g id="bg-hero-el_x1fl6t8ce1x_to" transform="translate(422.699997,414)"><polygon id="bg-hero-el_x1fl6t8ce1x" points="424.500000,410 425,418 420.400000,418 421,410" transform="translate(-422.699997,-414)" fill="rgb(117,70,46)" stroke="none" stroke-width="1"/></g><g id="bg-hero-el_jnwxgp3fepm_to" transform="translate(424.149994,414)"><polygon id="bg-hero-el_jnwxgp3fepm" points="423,418 423,410 424.800000,410 425.300000,418" transform="translate(-424.149994,-414)" fill="rgb(62,140,199)" stroke="none" stroke-width="1"/></g></g></g></g><g id="bg-hero-el_yzzdjwsbch_lqteum1kc" opacity="0.35"><g id="bg-hero-el_yzzdjwsbch_to" transform="translate(247.146309,406.321121)"><path id="bg-hero-el_yzzdjwsbch" d="M170.300000,429C168.400000,418.200000,175.500000,407.900000,186.300000,406C194.700000,404.500000,203.100000,408.500000,207.200000,416C212.500000,410.500000,220.800000,409.100000,227.700000,412.600000C232.500000,403.800000,242.600000,399.400000,252.300000,401.800000C256.300000,388.400000,270.400000,380.700000,283.800000,384.700000C293.400000,387.600000,300.500000,395.800000,301.800000,405.800000C302.700000,405.700000,303.600000,405.600000,304.500000,405.600000C315.500000,405.600000,324.300000,414.500000,324.300000,425.500000C324.300000,426.700000,324.200000,427.900000,324,429L170.300000,429Z" transform="translate(-247.146309,-406.321121)" fill="rgb(238,148,128)" stroke="none" stroke-width="1"/></g></g><g id="bg-hero-el_zk_i1rg9bw__6o-ehjwy7" opacity="0.47"><g id="bg-hero-el_zk_i1rg9bw__to" transform="translate(88.900002,383.808548)"><path id="bg-hero-el_zk_i1rg9bw_" d="M110.300000,378.300000C105.600000,378.300000,101.200000,380,97.700000,383.200000C90.100000,370.800000,73.800000,366.900000,61.400000,374.500000C53.600000,379.300000,48.800000,387.800000,48.800000,397L129,397C129,386.700000,120.600000,378.300000,110.300000,378.300000L110.300000,378.300000Z" transform="translate(-88.900002,-383.808548)" fill="rgb(42,183,202)" stroke="none" stroke-width="1"/></g></g><g id="bg-hero-el_ietj6mepyss_6cqay3ifs" opacity="0.37"><g id="bg-hero-el_ietj6mepyss_to" transform="translate(321.800003,354.935013)"><path id="bg-hero-el_ietj6mepyss" d="M287.900000,365C287.800000,364.500000,287.800000,363.900000,287.800000,363.400000C287.800000,358.600000,291.700000,354.700000,296.500000,354.700000C299.700000,354.700000,302.600000,356.500000,304.200000,359.300000C306.500000,356.900000,310.200000,356.300000,313.200000,357.800000C314.900000,354.700000,318.200000,352.700000,321.700000,352.700000C322.500000,352.700000,323.300000,352.800000,324,353C325.700000,347.100000,331.900000,343.600000,337.800000,345.300000C342.200000,346.500000,345.400000,350.300000,345.900000,354.800000C346.300000,354.700000,346.700000,354.700000,347.100000,354.700000C351.900000,354.700000,355.800000,358.600000,355.800000,363.400000L355.800000,363.400000C355.800000,363.900000,355.800000,364.500000,355.700000,365L287.900000,365Z" transform="translate(-321.800003,-354.935013)" fill="rgb(42,183,202)" stroke="none" stroke-width="1"/></g></g><g id="bg-hero-el_yzzdjwsbch_lqteum1kc_1_" opacity="0.35"><g id="bg-hero-el_yzzdjwsbch_1__to" transform="translate(944.855164,229.912041)"><path id="bg-hero-el_yzzdjwsbch_1_" d="M799,272.900000C798.600000,270.700000,798.400000,268.400000,798.400000,266.200000C798.400000,245.400000,815.200000,228.500000,836,228.500000C837.700000,228.500000,839.500000,228.600000,841.200000,228.900000C843.600000,209.900000,857,194.200000,875.300000,188.800000C900.800000,181.300000,927.600000,195.800000,935.100000,221.300000C953.500000,216.800000,972.700000,225.200000,981.800000,241.900000C994.700000,235.200000,1010.600000,237.700000,1020.700000,248.300000C1028.500000,234.100000,1044.500000,226.400000,1060.400000,229.300000C1080.900000,233,1094.400000,252.600000,1090.700000,273L799,273L799,272.900000Z" transform="translate(-944.855164,-229.912041)" fill="rgb(238,148,128)" stroke="none" stroke-width="1"/></g></g><g id="bg-hero-el_zk_i1rg9bw__6o-ehjwy7_1_" opacity="0.28"><g id="bg-hero-el_zk_i1rg9bw__1__to" transform="translate(1245.700012,186.889099)"><path id="bg-hero-el_zk_i1rg9bw__1_" d="M1205.100000,176.400000C1185.500000,176.400000,1169.500000,192.300000,1169.500000,212L1321.900000,212C1321.900000,194.600000,1312.900000,178.400000,1298,169.200000C1274.400000,154.700000,1243.500000,162.100000,1229,185.700000C1222.500000,179.800000,1213.900000,176.400000,1205.100000,176.400000L1205.100000,176.400000Z" transform="translate(-1245.700012,-186.889099)" fill="rgb(42,183,202)" stroke="none" stroke-width="1"/></g></g><g id="bg-hero-el_ietj6mepyss_6cqay3ifs_1_" opacity="0.37"><g id="bg-hero-el_ietj6mepyss_1__to" transform="translate(803.106903,131.846298)"><path id="bg-hero-el_ietj6mepyss_1_" d="M738.800000,151C738.600000,150,738.500000,149,738.500000,148L738.500000,148C738.500000,138.800000,745.900000,131.400000,755.100000,131.400000C755.900000,131.400000,756.600000,131.500000,757.400000,131.600000C758.400000,123,764.400000,115.900000,772.700000,113.500000C784,110.300000,795.700000,116.900000,798.900000,128.200000C800.300000,127.800000,801.800000,127.700000,803.300000,127.700000C810.100000,127.700000,816.300000,131.400000,819.500000,137.300000C825.200000,134.300000,832.100000,135.500000,836.600000,140.100000C840,133.900000,847.100000,130.300000,854.400000,131.700000C861.100000,133,866.400000,138.600000,867.500000,145.400000C867.800000,147.300000,867.800000,149.100000,867.400000,151L738.800000,151Z" transform="translate(-803.106903,-131.846298)" fill="rgb(42,183,202)" stroke="none" stroke-width="1"/></g></g><polygon id="bg-hero-bg-features" points="1440,629.500000 1440,865 956.800000,656.900000 673.700000,723.100000 0,546" fill="rgb(238,148,128)" stroke="none" stroke-width="1"/><g id="bg-hero-group-6"><polygon id="bg-hero-polygon1" points="972.500000,471.700000 1442,-2 1442,122.100000 1442,634 0,546.500000 0,537 686.600000,392.100000" fill="rgb(42,183,202)" stroke="none" stroke-width="1"/><polygon id="bg-hero-polygon_1_" points="1439,2.300000 1441.900000,234.500000 1426.700000,181.100000 1386.700000,234.500000 1364.800000,161.800000 1283.900000,190.600000 1325.100000,118.400000" fill="rgb(255,255,255)" stroke="none" stroke-width="1"/></g><g id="bg-hero-trekking" transform="matrix(1 0 0 1 956 361)"><g id="bg-hero-path1_to" transform="translate(4,55)"><path id="bg-hero-path1" d="M3.600000,46L8,46L8,64L3.600000,64C1.600000,64,0,62.200000,0,60L0,50.100000C0,47.800000,1.600000,46,3.600000,46Z" transform="translate(-4,-55)" fill="rgb(207,71,55)" stroke="none" stroke-width="1"/></g><g id="bg-hero-path_1__to" transform="translate(40.500000,50)"><path id="bg-hero-path_1_" d="M44.600000,25L36.300000,25C31.700000,25,28,29.100000,28,34.100000L28,75L53,75L53,34.100000C52.900000,29.100000,49.200000,25,44.600000,25Z" transform="translate(-40.500000,-50)" fill="rgb(62,140,199)" stroke="none" stroke-width="1"/></g><g id="bg-hero-path_2__to" transform="translate(42.537498,13.450000)"><path id="bg-hero-path_2_" d="M51,2.200000L34.300000,4.500000C34.100000,5.200000,34,5.900000,34,6.700000L34,15.700000C34,20.700000,37.800000,24.700000,42.500000,24.700000C47.200000,24.700000,51,20.700000,51,15.700000L51,6.700000C51.100000,5.200000,51.100000,3.700000,51,2.200000Z" transform="translate(-42.537498,-13.450000)" fill="rgb(254,201,163)" stroke="none" stroke-width="1"/></g><g id="bg-hero-group" transform="matrix(1 0 0 1 9 0)"><g id="bg-hero-path_3__to" transform="translate(37,6.150000)"><path id="bg-hero-path_3_" d="M26,5L26,14.300000L34.800000,5L41.400000,5C45,5,48,1.900000,48,-2L32.600000,-2C28.900000,-2,26,1.100000,26,5" transform="translate(-37,-6.150000)" fill="rgb(117,70,46)" stroke="none" stroke-width="1"/></g><g id="bg-hero-path_4__to" transform="translate(32.200001,97.699997)"><path id="bg-hero-path_4_" d="M45.400000,75L19,75L19,97.700000L-0.800000,106.800000L3.600000,115.900000L24.600000,106.900000C27.900000,105.500000,30,102.200000,30,98.500000L30,88.400000C30,86,31.900000,84.100000,34.200000,84.100000C35.700000,84.100000,37.100000,84.900000,37.800000,86.300000L56.400000,120.400000L65.200000,115.900000L45.400000,75Z" transform="translate(-32.200001,-97.699997)" fill="rgb(117,70,46)" stroke="none" stroke-width="1"/></g></g><g id="bg-hero-group_1_" transform="matrix(1 0 0 1 0 108.58100000000000)"><g id="bg-hero-path_5__to" transform="translate(8.474999,9.850000)"><path id="bg-hero-path_5_" d="M7.600000,18.900000L0.200000,2.900000L8.700000,-1.700000L16.300000,14.700000C16.900000,16,16.900000,17.500000,16.300000,18.800000C15.600000,20.400000,14.100000,21.400000,12.500000,21.400000L11.400000,21.400000C9.800000,21.400000,8.300000,20.400000,7.600000,18.900000Z" transform="translate(-8.474999,-9.850000)" fill="rgb(62,140,199)" stroke="none" stroke-width="1"/></g><g id="bg-hero-path_6__to" transform="translate(74.104237,12.775054)"><path id="bg-hero-path_6_" d="M81.300000,14.200000L68.500000,21.100000L64.200000,11.800000L77.100000,5C79.500000,3.700000,82.300000,4.800000,83.500000,7.300000C84.700000,9.800000,83.700000,12.900000,81.300000,14.200000Z" transform="translate(-74.104237,-12.775054)" fill="rgb(62,140,199)" stroke="none" stroke-width="1"/></g></g><g id="bg-hero-path_7__to" transform="translate(67.996323,48.546686)"><path id="bg-hero-path_7_" d="M82,39.200000C80.300000,36.800000,77,36.300000,74.700000,38.100000C74.500000,38.300000,74.300000,38.400000,74.100000,38.600000L63.600000,49.700000L53,36.300000L53,54.100000L53.900000,55.600000C57.300000,61,64.200000,62.400000,69.300000,58.800000C69.900000,58.400000,70.500000,57.900000,71,57.300000L81.400000,46.300000C83.300000,44.400000,83.500000,41.400000,82,39.200000Z" transform="translate(-67.996323,-48.546686)" fill="rgb(254,201,163)" stroke="none" stroke-width="1"/></g><g id="bg-hero-group_2_" transform="matrix(1 0 0 1 9 24.48390000000000)"><g id="bg-hero-path_8__to" transform="translate(23.425688,21.549999)"><path id="bg-hero-path_8_" d="M26.100000,-2.500000L11,-2.500000L11,2.500000L26.100000,2.500000C29.100000,2.700000,31.600000,5.300000,31.600000,8.600000C31.600000,9.500000,31.400000,10.400000,31.100000,11.200000L17.900000,40.400000L13,41.100000L13,45.600000L18.600000,44.700000C20,44.500000,21.200000,43.600000,21.800000,42.200000L34.900000,13.200000C37.200000,8,35.200000,1.700000,30.300000,-0.800000C29,-1.500000,27.600000,-1.800000,26.100000,-2.500000Z" transform="translate(-23.425688,-21.549999)" fill="rgb(117,70,46)" stroke="none" stroke-width="1"/></g><g id="bg-hero-path_9__to" transform="translate(9.450001,43)"><path id="bg-hero-path_9_" d="M0,40.700000C0,44.400000,2.800000,47.500000,6.300000,47.500000L12.600000,47.500000C16.100000,47.500000,18.900000,44.500000,18.900000,40.700000L18.900000,38.500000L0,38.500000L0,40.700000Z" transform="translate(-9.450001,-43)" fill="rgb(117,70,46)" stroke="none" stroke-width="1"/></g></g><g id="bg-hero-path_10__to" transform="translate(18.500000,45)"><path id="bg-hero-path_10_" d="M27.600000,30.500000C26.700000,27.800000,24.300000,26,21.600000,26L15.300000,26C11.800000,26,9,29,9,32.700000L9,64L28,64L28,32.700000L27.600000,30.500000Z" transform="translate(-18.500000,-45)" fill="rgb(222,76,60)" stroke="none" stroke-width="1"/></g><g id="bg-hero-rectangle_to" transform="translate(85.100002,80.550003)"><polygon id="bg-hero-rectangle" points="97.800000,128.700000 94,129.600000 72.400000,32.500000 76.200000,31.500000" transform="translate(-85.100002,-80.550003)" fill="rgb(117,70,46)" stroke="none" stroke-width="1"/></g><g id="bg-hero-shape_to" transform="translate(18.500000,14.500000)"><path id="bg-hero-shape" d="M18.500000,4.400000C13.300000,4.400000,9,8.900000,9,14.500000C9,20.100000,13.300000,24.600000,18.500000,24.600000C23.700000,24.600000,28,20.100000,28,14.500000C28,8.900000,23.700000,4.400000,18.500000,4.400000ZM18.500000,17.900000C16.800000,17.900000,15.300000,16.400000,15.300000,14.500000C15.300000,12.600000,16.700000,11.100000,18.500000,11.100000C20.300000,11.100000,21.700000,12.600000,21.700000,14.500000C21.700000,16.400000,20.200000,17.900000,18.500000,17.900000Z" transform="translate(-18.500000,-14.500000)" fill="rgb(62,140,199)" stroke="none" stroke-width="1"/></g><g id="bg-hero-path_11__to" transform="translate(31.993861,45.300005)"><path id="bg-hero-path_11_" d="M42.400000,35.900000L29.900000,43.800000L44.600000,54.800000C47.100000,56.500000,47.700000,60,46.100000,62.600000C46,62.700000,46,62.800000,45.900000,62.800000C44.200000,65.200000,41,65.700000,38.600000,64.100000L20.600000,50.800000C18.400000,49.200000,17,46.600000,17,43.800000C17,41,18.300000,38.400000,20.600000,36.800000L36.500000,26.500000C38.900000,24.900000,42.100000,25.400000,43.800000,27.800000C45.600000,30.300000,45.100000,33.800000,42.700000,35.600000C42.600000,35.800000,42.500000,35.900000,42.400000,35.900000Z" transform="translate(-31.993861,-45.300005)" fill="rgb(254,201,163)" stroke="none" stroke-width="1"/></g></g></svg>